<svg data-v-0dd9719b="" xmlns="http://www.w3.org/2000/svg" xmlns:xlink="http://www.w3.org/1999/xlink" width="100%" height="100%" viewBox="0 0 340.000000 250.000000" preserveAspectRatio="xMidYMid meet" color-interpolation-filters="sRGB" style="margin: auto;"><rect data-v-0dd9719b="" x="0" y="0" width="100%" height="100%" fill="url(#watermark)" fill-opacity="1" class="watermarklayer"></rect><g data-v-0dd9719b="" fill="#ffffff" class="icon-text-wrapper icon-svg-group iconsvg" transform="translate(83.59000396728516,67.46208953857422)"><g class="iconsvg-imagesvg" transform="translate(56.409996032714844,0)"><g><rect fill="#ffffff" fill-opacity="0" stroke-width="2" x="0" y="0" width="60.00000000000001" height="69.025815655055" class="image-rect"></rect><svg filter="url(#colors8821274210)" x="0" y="0" width="60.00000000000001" height="69.025815655055" class="image-svg-svg primary" style="overflow: visible;"><svg xmlns="http://www.w3.org/2000/svg" viewBox="-0.30000000000000004 0.2999999999999998 85.10001 97.3"><path d="M2 25.6L42.4 2.3l40.4 23.3v46.6L42.4 95.6 2 72.3V25.6zm-.1-.1L42.4 49l40.1-23.4m-70.4-5.8l30.1 17.5 30.5-17.5m-10.2 5.8L32.3 8.1M22.2 14l30.2 17.4m30.4 5.9l-10.3-5.9m10.3 29.2L32.3 89.7m50.5-29.1L52.5 43.1l-50.8 29m0 .1l10.4 5.9L62.5 49m0-11.8l20.3 11.7m-60.6 35l50.5-29.1M2 37.3l30.2 17.4M2 48.9l20.1 11.6M2 60.6l9.9 5.7" fill="none" stroke="#333" stroke-width="4" stroke-miterlimit="10"></path></svg></svg><defs><filter id="colors8821274210"><feColorMatrix type="matrix" values="0 0 0 0 0.04296875  0 0 0 0 0.74609375  0 0 0 0 0.390625  0 0 0 1 0" class="icon-fecolormatrix"></feColorMatrix></filter><filter id="colorsf3929004660"><feColorMatrix type="matrix" values="0 0 0 0 0.99609375  0 0 0 0 0.99609375  0 0 0 0 0.99609375  0 0 0 1 0" class="icon-fecolormatrix"></feColorMatrix></filter><filter id="colorsb9821079364"><feColorMatrix type="matrix" values="0 0 0 0 0  0 0 0 0 0  0 0 0 0 0  0 0 0 1 0" class="icon-fecolormatrix"></feColorMatrix></filter></defs></g></g><g transform="translate(0,76.02581787109375)"><g data-gra="path-name" fill-rule="" class="tp-name iconsvg-namesvg"><g transform="scale(1)"><g><path d="M2.69-35.75C4.01-34.7 3.96-33.72 3.96-32.12L3.96-3.63C3.96-2.04 4.01-1.04 2.69 0L9.24 0C11.82 0 12.32-2.15 12.32-4.57L12.32-17.93 22.71-17.93 22.71-20.02 12.32-20.02 12.32-31.18C12.32-32.23 12.27-33.22 11.88-33.99 17.6-33.16 24.09-32.01 28.88-30.47L28.88-35.75ZM31.57-34.1C31.57-31.57 33.66-29.48 36.19-29.48 38.61-29.48 40.59-31.57 40.59-34.1 40.59-36.52 38.61-38.5 36.19-38.5 33.66-38.5 31.57-36.52 31.57-34.1ZM32.23-4.01C32.23-1.54 32.78 0 35.42 0L41.41 0C40.04-1.1 40.15-2.09 40.15-3.74L40.15-20.9C40.15-23.43 39.55-24.91 36.91-24.91L30.91-24.91C32.28-23.87 32.23-22.82 32.23-21.18ZM43.95-24.91C45.32-23.87 45.27-22.82 45.27-21.18L45.27-4.01C45.27-1.54 45.81 0 48.45 0L54.45 0C53.08-1.1 53.19-2.09 53.19-3.74L53.19-15.18C53.52-20.3 55.27-23.54 58.02-23.54 60.39-23.54 61.98-22.27 61.98-15.68L61.98-4.01C61.98-1.54 62.53 0 65.17 0L71.17 0C69.85-1.1 69.91-2.09 69.91-3.69L69.91-15.84C69.91-22.93 64.57-25.36 59.62-25.36 56.65-25.36 54.5-24.09 53.08-21.89L53.08-22.05C52.86-23.82 52.14-24.91 49.94-24.91ZM84.64-25.36C77.82-25.36 73.81-20.13 73.81-12.6 73.81-5 78.1 0.44 85.08 0.44 88.22 0.44 90.64-0.66 92.29-2.58L92.34-2.58C92.56-0.99 93.33 0 95.42 0L101.42 0C100.04-1.1 100.1-2.09 100.1-3.74L100.1-34.48C100.1-36.96 99.49-38.5 96.85-38.5L90.86-38.5C92.29-37.4 92.23-36.41 92.23-34.76L92.23-21.34C91.08-23.65 88.6-25.36 84.64-25.36ZM82.22-12.65C82.22-18.54 83.66-23.71 86.84-23.71 88.72-23.71 91.63-20.41 92.23-15.73L92.23-11.55C91.96-6 89.76-0.94 86.84-0.94 83.77-0.94 82.22-6.66 82.22-12.65ZM103.67-5.67C103.67-3.02 106.04 0.44 112.25 0.44 115.94 0.44 118.42-1.43 119.9-3.79L119.9-3.74C119.95-1.43 120.84 0 124.63 0L129.03 0C127.66-1.1 127.77-2.09 127.77-3.69L127.77-18.21C127.77-23.38 121.61-25.36 116.6-25.36 111.65-25.36 107.36-24.31 106.26-21.78 104.94-18.92 107.47-16.17 112.03-16 111.98-16 113.03-24.7 116.6-24.7 119.41-24.7 119.9-20.46 119.9-17.98L119.9-15.29C115.89-12.38 103.67-11.61 103.67-5.67ZM111.98-6.27C111.98-10.84 117.42-11.94 119.9-13.8L119.9-10.06C119.9-6.71 118.8-2.25 115.06-2.25 113.58-2.25 111.98-3.63 111.98-6.27ZM134.53-23.38L134.53-4.95C134.53-1.38 137.89 0.55 141.35 0.55 144.49 0.55 147.62-1.1 148.23-4.57 147.34-3.69 146.19-3.08 145.15-3.08 143.66-3.08 142.4-4.24 142.4-7.48L142.4-23.38 147.18-23.38 147.18-24.91 142.4-24.91 142.4-29.37C142.4-31.9 141.84-33.38 139.15-33.38L133.21-33.38C134.59-32.29 134.53-31.3 134.53-29.7L134.53-24.91 131.01-24.91 131.01-23.38ZM150.15-5.67C150.15-3.02 152.52 0.44 158.73 0.44 162.42 0.44 164.89-1.43 166.38-3.79L166.38-3.74C166.43-1.43 167.31 0 171.11 0L175.51 0C174.13-1.1 174.24-2.09 174.24-3.69L174.24-18.21C174.24-23.38 168.08-25.36 163.08-25.36 158.13-25.36 153.84-24.31 152.74-21.78 151.42-18.92 153.95-16.17 158.51-16 158.46-16 159.5-24.7 163.08-24.7 165.88-24.7 166.38-20.46 166.38-17.98L166.38-15.29C162.36-12.38 150.15-11.61 150.15-5.67ZM158.46-6.27C158.46-10.84 163.9-11.94 166.38-13.8L166.38-10.06C166.38-6.71 165.28-2.25 161.54-2.25 160.05-2.25 158.46-3.63 158.46-6.27Z" transform="translate(-2.690000057220459, 38.5)"></path></g></g></g></g></g></svg>